<svg width="123" height="48" viewBox="0 0 123 48" fill="none" xmlns="http://www.w3.org/2000/svg">
    <rect width="123" height="48" rx="24" fill="#E27B3A"/>
    <path d="M31.3203 29V17.625H35.0391C36.2734 17.625 37.2005 17.8802 37.8203 18.3906C38.4453 18.901 38.7578 19.6562 38.7578 20.6562C38.7578 21.1875 38.6068 21.6589 38.3047 22.0703C38.0026 22.4766 37.5911 22.7917 37.0703 23.0156C37.6849 23.1875 38.1693 23.5156 38.5234 24C38.8828 24.4792 39.0625 25.0521 39.0625 25.7188C39.0625 26.7396 38.7318 27.5417 38.0703 28.125C37.4089 28.7083 36.474 29 35.2656 29H31.3203ZM32.8203 23.6797V27.7734H35.2969C35.9948 27.7734 36.5443 27.5938 36.9453 27.2344C37.3516 26.8698 37.5547 26.3698 37.5547 25.7344C37.5547 24.3646 36.8099 23.6797 35.3203 23.6797H32.8203ZM32.8203 22.4766H35.0859C35.7422 22.4766 36.2656 22.3125 36.6562 21.9844C37.0521 21.6562 37.25 21.2109 37.25 20.6484C37.25 20.0234 37.0677 19.5703 36.7031 19.2891C36.3385 19.0026 35.7839 18.8594 35.0391 18.8594H32.8203V22.4766ZM46.2812 28.1641C45.7188 28.8255 44.8932 29.1562 43.8047 29.1562C42.9036 29.1562 42.2161 28.8958 41.7422 28.375C41.2734 27.849 41.0365 27.0729 41.0312 26.0469V20.5469H42.4766V26.0078C42.4766 27.2891 42.9974 27.9297 44.0391 27.9297C45.1432 27.9297 45.8776 27.5182 46.2422 26.6953V20.5469H47.6875V29H46.3125L46.2812 28.1641ZM52.6562 26.8828L54.625 20.5469H56.1719L52.7734 30.3047C52.2474 31.7109 51.4115 32.4141 50.2656 32.4141L49.9922 32.3906L49.4531 32.2891V31.1172L49.8438 31.1484C50.3333 31.1484 50.7135 31.0495 50.9844 30.8516C51.2604 30.6536 51.487 30.2917 51.6641 29.7656L51.9844 28.9062L48.9688 20.5469H50.5469L52.6562 26.8828ZM70.4062 29H68.8984L63.1719 20.2344V29H61.6641V17.625H63.1719L68.9141 26.4297V17.625H70.4062V29ZM72.4609 24.6953C72.4609 23.8672 72.6224 23.1224 72.9453 22.4609C73.2734 21.7995 73.7266 21.2891 74.3047 20.9297C74.888 20.5703 75.5521 20.3906 76.2969 20.3906C77.4479 20.3906 78.3776 20.7891 79.0859 21.5859C79.7995 22.3828 80.1562 23.4427 80.1562 24.7656V24.8672C80.1562 25.6901 79.9974 26.4297 79.6797 27.0859C79.3672 27.737 78.9167 28.2448 78.3281 28.6094C77.7448 28.974 77.0729 29.1562 76.3125 29.1562C75.1667 29.1562 74.237 28.7578 73.5234 27.9609C72.8151 27.1641 72.4609 26.1094 72.4609 24.7969V24.6953ZM73.9141 24.8672C73.9141 25.8047 74.1302 26.5573 74.5625 27.125C75 27.6927 75.5833 27.9766 76.3125 27.9766C77.0469 27.9766 77.6302 27.6901 78.0625 27.1172C78.4948 26.5391 78.7109 25.7318 78.7109 24.6953C78.7109 23.7682 78.4896 23.0182 78.0469 22.4453C77.6094 21.8672 77.026 21.5781 76.2969 21.5781C75.5833 21.5781 75.0078 21.862 74.5703 22.4297C74.1328 22.9974 73.9141 23.8099 73.9141 24.8672ZM89.4531 27.0078L91.0781 20.5469H92.5234L90.0625 29H88.8906L86.8359 22.5938L84.8359 29H83.6641L81.2109 20.5469H82.6484L84.3125 26.875L86.2812 20.5469H87.4453L89.4531 27.0078Z" fill="white"/>
</svg>
