<svg width="139" height="48" viewBox="0 0 139 48" fill="none" xmlns="http://www.w3.org/2000/svg">
    <rect opacity="0.15" x="0.5" y="0.5" width="138" height="47" rx="23.5" stroke="#E27B3A"/>
    <path d="M33.6719 23.9297C32.3854 23.5599 31.4479 23.1068 30.8594 22.5703C30.276 22.0286 29.9844 21.362 29.9844 20.5703C29.9844 19.6745 30.3411 18.9349 31.0547 18.3516C31.7734 17.763 32.7057 17.4688 33.8516 17.4688C34.6328 17.4688 35.3281 17.6198 35.9375 17.9219C36.5521 18.224 37.026 18.6406 37.3594 19.1719C37.6979 19.7031 37.8672 20.2839 37.8672 20.9141H36.3594C36.3594 20.2266 36.1406 19.6875 35.7031 19.2969C35.2656 18.901 34.6484 18.7031 33.8516 18.7031C33.112 18.7031 32.5339 18.8672 32.1172 19.1953C31.7057 19.5182 31.5 19.9688 31.5 20.5469C31.5 21.0104 31.6953 21.4036 32.0859 21.7266C32.4818 22.0443 33.151 22.3359 34.0938 22.6016C35.0417 22.8672 35.7812 23.1615 36.3125 23.4844C36.849 23.8021 37.2448 24.1745 37.5 24.6016C37.7604 25.0286 37.8906 25.5312 37.8906 26.1094C37.8906 27.0312 37.5312 27.7708 36.8125 28.3281C36.0938 28.8802 35.1328 29.1562 33.9297 29.1562C33.1484 29.1562 32.4193 29.0078 31.7422 28.7109C31.0651 28.4089 30.5417 27.9974 30.1719 27.4766C29.8073 26.9557 29.625 26.3646 29.625 25.7031H31.1328C31.1328 26.3906 31.3854 26.9349 31.8906 27.3359C32.401 27.7318 33.0807 27.9297 33.9297 27.9297C34.7214 27.9297 35.3281 27.7682 35.75 27.4453C36.1719 27.1224 36.3828 26.6823 36.3828 26.125C36.3828 25.5677 36.1875 25.138 35.7969 24.8359C35.4062 24.5286 34.6979 24.2266 33.6719 23.9297ZM43.1016 29.1562C41.9557 29.1562 41.0234 28.7812 40.3047 28.0312C39.5859 27.276 39.2266 26.2682 39.2266 25.0078V24.7422C39.2266 23.9036 39.3854 23.1562 39.7031 22.5C40.026 21.8385 40.474 21.3229 41.0469 20.9531C41.625 20.5781 42.25 20.3906 42.9219 20.3906C44.0208 20.3906 44.875 20.7526 45.4844 21.4766C46.0938 22.2005 46.3984 23.237 46.3984 24.5859V25.1875H40.6719C40.6927 26.0208 40.9349 26.6953 41.3984 27.2109C41.8672 27.7214 42.4609 27.9766 43.1797 27.9766C43.6901 27.9766 44.1224 27.8724 44.4766 27.6641C44.8307 27.4557 45.1406 27.1797 45.4062 26.8359L46.2891 27.5234C45.5807 28.612 44.5182 29.1562 43.1016 29.1562ZM42.9219 21.5781C42.3385 21.5781 41.849 21.7917 41.4531 22.2188C41.0573 22.6406 40.8125 23.2344 40.7188 24H44.9531V23.8906C44.9115 23.1562 44.7135 22.5885 44.3594 22.1875C44.0052 21.7812 43.526 21.5781 42.9219 21.5781ZM51.5859 29.1562C50.4401 29.1562 49.5078 28.7812 48.7891 28.0312C48.0703 27.276 47.7109 26.2682 47.7109 25.0078V24.7422C47.7109 23.9036 47.8698 23.1562 48.1875 22.5C48.5104 21.8385 48.9583 21.3229 49.5312 20.9531C50.1094 20.5781 50.7344 20.3906 51.4062 20.3906C52.5052 20.3906 53.3594 20.7526 53.9688 21.4766C54.5781 22.2005 54.8828 23.237 54.8828 24.5859V25.1875H49.1562C49.1771 26.0208 49.4193 26.6953 49.8828 27.2109C50.3516 27.7214 50.9453 27.9766 51.6641 27.9766C52.1745 27.9766 52.6068 27.8724 52.9609 27.6641C53.3151 27.4557 53.625 27.1797 53.8906 26.8359L54.7734 27.5234C54.0651 28.612 53.0026 29.1562 51.5859 29.1562ZM51.4062 21.5781C50.8229 21.5781 50.3333 21.7917 49.9375 22.2188C49.5417 22.6406 49.2969 23.2344 49.2031 24H53.4375V23.8906C53.3958 23.1562 53.1979 22.5885 52.8438 22.1875C52.4896 21.7812 52.0104 21.5781 51.4062 21.5781ZM60.7578 29V17.625H63.9688C64.9583 17.625 65.8333 17.8438 66.5938 18.2812C67.3542 18.7188 67.9401 19.3411 68.3516 20.1484C68.7682 20.9557 68.9792 21.8828 68.9844 22.9297V23.6562C68.9844 24.7292 68.776 25.6693 68.3594 26.4766C67.9479 27.2839 67.3568 27.9036 66.5859 28.3359C65.8203 28.7682 64.9271 28.9896 63.9062 29H60.7578ZM62.2578 18.8594V27.7734H63.8359C64.9922 27.7734 65.8906 27.4141 66.5312 26.6953C67.1771 25.9766 67.5 24.9531 67.5 23.625V22.9609C67.5 21.6693 67.1953 20.6667 66.5859 19.9531C65.9818 19.2344 65.1224 18.8698 64.0078 18.8594H62.2578ZM74.5391 29.1562C73.3932 29.1562 72.4609 28.7812 71.7422 28.0312C71.0234 27.276 70.6641 26.2682 70.6641 25.0078V24.7422C70.6641 23.9036 70.8229 23.1562 71.1406 22.5C71.4635 21.8385 71.9115 21.3229 72.4844 20.9531C73.0625 20.5781 73.6875 20.3906 74.3594 20.3906C75.4583 20.3906 76.3125 20.7526 76.9219 21.4766C77.5312 22.2005 77.8359 23.237 77.8359 24.5859V25.1875H72.1094C72.1302 26.0208 72.3724 26.6953 72.8359 27.2109C73.3047 27.7214 73.8984 27.9766 74.6172 27.9766C75.1276 27.9766 75.5599 27.8724 75.9141 27.6641C76.2682 27.4557 76.5781 27.1797 76.8438 26.8359L77.7266 27.5234C77.0182 28.612 75.9557 29.1562 74.5391 29.1562ZM74.3594 21.5781C73.776 21.5781 73.2865 21.7917 72.8906 22.2188C72.4948 22.6406 72.25 23.2344 72.1562 24H76.3906V23.8906C76.349 23.1562 76.151 22.5885 75.7969 22.1875C75.4427 21.7812 74.9635 21.5781 74.3594 21.5781ZM81.4766 18.5V20.5469H83.0547V21.6641H81.4766V26.9062C81.4766 27.2448 81.5469 27.5 81.6875 27.6719C81.8281 27.8385 82.0677 27.9219 82.4062 27.9219C82.5729 27.9219 82.8021 27.8906 83.0938 27.8281V29C82.7135 29.1042 82.3438 29.1562 81.9844 29.1562C81.3385 29.1562 80.8516 28.9609 80.5234 28.5703C80.1953 28.1797 80.0312 27.625 80.0312 26.9062V21.6641H78.4922V20.5469H80.0312V18.5H81.4766ZM89.9688 29C89.8854 28.8333 89.8177 28.5365 89.7656 28.1094C89.0938 28.8073 88.2917 29.1562 87.3594 29.1562C86.526 29.1562 85.8411 28.9219 85.3047 28.4531C84.7734 27.9792 84.5078 27.3802 84.5078 26.6562C84.5078 25.776 84.8411 25.0938 85.5078 24.6094C86.1797 24.1198 87.1224 23.875 88.3359 23.875H89.7422V23.2109C89.7422 22.7057 89.5911 22.3047 89.2891 22.0078C88.987 21.7057 88.5417 21.5547 87.9531 21.5547C87.4375 21.5547 87.0052 21.6849 86.6562 21.9453C86.3073 22.2057 86.1328 22.5208 86.1328 22.8906H84.6797C84.6797 22.4688 84.8281 22.0625 85.125 21.6719C85.4271 21.276 85.8333 20.9635 86.3438 20.7344C86.8594 20.5052 87.4245 20.3906 88.0391 20.3906C89.013 20.3906 89.776 20.6354 90.3281 21.125C90.8802 21.6094 91.1667 22.2786 91.1875 23.1328V27.0234C91.1875 27.7995 91.2865 28.4167 91.4844 28.875V29H89.9688ZM87.5703 27.8984C88.0234 27.8984 88.4531 27.7812 88.8594 27.5469C89.2656 27.3125 89.5599 27.0078 89.7422 26.6328V24.8984H88.6094C86.8385 24.8984 85.9531 25.4167 85.9531 26.4531C85.9531 26.9062 86.1042 27.2604 86.4062 27.5156C86.7083 27.7708 87.0964 27.8984 87.5703 27.8984ZM95.0234 29H93.5781V20.5469H95.0234V29ZM93.4609 18.3047C93.4609 18.0703 93.5312 17.8724 93.6719 17.7109C93.8177 17.5495 94.0312 17.4688 94.3125 17.4688C94.5938 17.4688 94.8073 17.5495 94.9531 17.7109C95.099 17.8724 95.1719 18.0703 95.1719 18.3047C95.1719 18.5391 95.099 18.7344 94.9531 18.8906C94.8073 19.0469 94.5938 19.125 94.3125 19.125C94.0312 19.125 93.8177 19.0469 93.6719 18.8906C93.5312 18.7344 93.4609 18.5391 93.4609 18.3047ZM98.9141 29H97.4688V17H98.9141V29ZM106.156 26.7578C106.156 26.3672 106.008 26.0651 105.711 25.8516C105.419 25.6328 104.906 25.4453 104.172 25.2891C103.443 25.1328 102.862 24.9453 102.43 24.7266C102.003 24.5078 101.685 24.2474 101.477 23.9453C101.273 23.6432 101.172 23.2839 101.172 22.8672C101.172 22.1745 101.464 21.5885 102.047 21.1094C102.635 20.6302 103.385 20.3906 104.297 20.3906C105.255 20.3906 106.031 20.638 106.625 21.1328C107.224 21.6276 107.523 22.2604 107.523 23.0312H106.07C106.07 22.6354 105.901 22.2943 105.562 22.0078C105.229 21.7214 104.807 21.5781 104.297 21.5781C103.771 21.5781 103.359 21.6927 103.062 21.9219C102.766 22.151 102.617 22.4505 102.617 22.8203C102.617 23.1693 102.755 23.4323 103.031 23.6094C103.307 23.7865 103.805 23.9557 104.523 24.1172C105.247 24.2786 105.833 24.4714 106.281 24.6953C106.729 24.9193 107.06 25.1901 107.273 25.5078C107.492 25.8203 107.602 26.2031 107.602 26.6562C107.602 27.4115 107.299 28.0182 106.695 28.4766C106.091 28.9297 105.307 29.1562 104.344 29.1562C103.667 29.1562 103.068 29.0365 102.547 28.7969C102.026 28.5573 101.617 28.224 101.32 27.7969C101.029 27.3646 100.883 26.8984 100.883 26.3984H102.328C102.354 26.8828 102.547 27.2682 102.906 27.5547C103.271 27.8359 103.75 27.9766 104.344 27.9766C104.891 27.9766 105.328 27.8672 105.656 27.6484C105.99 27.4245 106.156 27.1276 106.156 26.7578Z" fill="#E27B3A"/>
</svg>
