<svg width="175" height="41" viewBox="0 0 175 41" fill="none" xmlns="http://www.w3.org/2000/svg">
    <ellipse cx="21.3218" cy="20.5" rx="20.3597" ry="20" fill="#DFDFDF"/>
    <path d="M23.7211 15.3227H25.3937V12.6197C25.1052 12.5829 24.1127 12.5 22.9569 12.5C20.5452 12.5 18.8931 13.9075 18.8931 16.4943V18.875H16.2318V21.8967H18.8931V29.5H22.156V21.8975H24.7097L25.1151 18.8757H22.1553V16.7939C22.156 15.9205 22.4095 15.3227 23.7211 15.3227Z" fill="#211105"/>
    <ellipse cx="87.491" cy="20.5" rx="20.3598" ry="20" fill="#DFDFDF"/>
    <path d="M90.4567 27.9442C90.4703 27.9402 90.4832 27.9349 90.4968 27.9302C98.7947 24.6954 96.4993 12.5 87.499 12.5C82.9822 12.5 79.3471 16.1128 79.3471 20.4987C79.3471 26.0492 85.0765 30.0099 90.4567 27.9442ZM82.9346 25.8705C83.5134 24.916 85.3863 22.2231 88.5832 21.2939C89.2516 22.9663 89.7204 24.9173 89.7665 27.1297C87.3441 27.9289 84.7892 27.391 82.9346 25.8705ZM90.7685 26.7124C90.6796 24.5867 90.2373 22.7017 89.6069 21.0686C91.0212 20.852 92.6584 20.9966 94.515 21.7265C94.1203 23.9002 92.7039 25.7272 90.7685 26.7124ZM94.6217 20.6927C92.5769 19.9388 90.7747 19.8448 89.2149 20.1368C88.9738 19.6035 88.7204 19.0909 88.4521 18.619C90.8453 17.6812 92.2597 16.538 92.8928 15.9328C94.0103 17.2019 94.674 18.845 94.6217 20.6927ZM92.1693 15.2209C91.5932 15.7588 90.2366 16.8453 87.9167 17.7338C86.7796 15.9688 85.5636 14.7236 84.7932 14.0264C87.2578 13.0306 90.1001 13.4558 92.1693 15.2209ZM83.8191 14.515C84.4006 15.0169 85.677 16.2221 86.9086 18.0858C85.2171 18.6204 83.0963 19.013 80.5169 19.0683C80.9272 17.1393 82.1527 15.5049 83.8191 14.515ZM80.3878 20.0721C83.2749 20.0261 85.6118 19.5789 87.4589 18.9736C87.7143 19.4129 87.9568 19.8915 88.1898 20.3887C84.9732 21.3939 82.9631 23.9888 82.1935 25.1606C80.9517 23.8009 80.2669 22.0265 80.3878 20.0721Z" fill="#211105"/>
    <ellipse cx="153.66" cy="20.5" rx="20.3598" ry="20" fill="#DFDFDF"/>
    <path d="M161.569 15.9206C161.01 16.1615 160.414 16.3212 159.793 16.3988C160.432 16.024 160.92 15.4351 161.149 14.7252C160.553 15.0742 159.896 15.3206 159.195 15.4582C158.629 14.8665 157.823 14.5 156.943 14.5C155.237 14.5 153.863 15.8606 153.863 17.5286C153.863 17.7686 153.884 17.9994 153.934 18.2191C151.372 18.0963 149.104 16.8898 147.581 15.052C147.315 15.5052 147.159 16.024 147.159 16.5825C147.159 17.6311 147.709 18.5606 148.528 19.0988C148.033 19.0895 147.547 18.9483 147.136 18.7258C147.136 18.7351 147.136 18.7471 147.136 18.7591C147.136 20.2305 148.204 21.4526 149.605 21.7342C149.354 21.8015 149.081 21.8338 148.797 21.8338C148.6 21.8338 148.401 21.8228 148.214 21.7822C148.613 22.9812 149.746 23.8628 151.094 23.8914C150.045 24.6972 148.713 25.1828 147.272 25.1828C147.019 25.1828 146.777 25.1717 146.534 25.1412C147.9 26.0062 149.518 26.5 151.263 26.5C156.935 26.5 160.036 21.8846 160.036 17.884C160.036 17.7502 160.031 17.6209 160.024 17.4926C160.636 17.0662 161.15 16.5335 161.569 15.9206Z" fill="#211105"/>
</svg>
