<svg width="131" height="48" viewBox="0 0 131 48" fill="none" xmlns="http://www.w3.org/2000/svg">
    <rect width="131" height="48" rx="24" fill="#E27B3A"/>
    <path d="M34.6719 23.9297C33.3854 23.5599 32.4479 23.1068 31.8594 22.5703C31.276 22.0286 30.9844 21.362 30.9844 20.5703C30.9844 19.6745 31.3411 18.9349 32.0547 18.3516C32.7734 17.763 33.7057 17.4688 34.8516 17.4688C35.6328 17.4688 36.3281 17.6198 36.9375 17.9219C37.5521 18.224 38.026 18.6406 38.3594 19.1719C38.6979 19.7031 38.8672 20.2839 38.8672 20.9141H37.3594C37.3594 20.2266 37.1406 19.6875 36.7031 19.2969C36.2656 18.901 35.6484 18.7031 34.8516 18.7031C34.112 18.7031 33.5339 18.8672 33.1172 19.1953C32.7057 19.5182 32.5 19.9688 32.5 20.5469C32.5 21.0104 32.6953 21.4036 33.0859 21.7266C33.4818 22.0443 34.151 22.3359 35.0938 22.6016C36.0417 22.8672 36.7812 23.1615 37.3125 23.4844C37.849 23.8021 38.2448 24.1745 38.5 24.6016C38.7604 25.0286 38.8906 25.5312 38.8906 26.1094C38.8906 27.0312 38.5312 27.7708 37.8125 28.3281C37.0938 28.8802 36.1328 29.1562 34.9297 29.1562C34.1484 29.1562 33.4193 29.0078 32.7422 28.7109C32.0651 28.4089 31.5417 27.9974 31.1719 27.4766C30.8073 26.9557 30.625 26.3646 30.625 25.7031H32.1328C32.1328 26.3906 32.3854 26.9349 32.8906 27.3359C33.401 27.7318 34.0807 27.9297 34.9297 27.9297C35.7214 27.9297 36.3281 27.7682 36.75 27.4453C37.1719 27.1224 37.3828 26.6823 37.3828 26.125C37.3828 25.5677 37.1875 25.138 36.7969 24.8359C36.4062 24.5286 35.6979 24.2266 34.6719 23.9297ZM45.8125 28.1641C45.25 28.8255 44.4245 29.1562 43.3359 29.1562C42.4349 29.1562 41.7474 28.8958 41.2734 28.375C40.8047 27.849 40.5677 27.0729 40.5625 26.0469V20.5469H42.0078V26.0078C42.0078 27.2891 42.5286 27.9297 43.5703 27.9297C44.6745 27.9297 45.4089 27.5182 45.7734 26.6953V20.5469H47.2188V29H45.8438L45.8125 28.1641ZM56.5781 24.8672C56.5781 26.1589 56.2812 27.1979 55.6875 27.9844C55.0938 28.7656 54.2969 29.1562 53.2969 29.1562C52.2292 29.1562 51.4036 28.7786 50.8203 28.0234L50.75 29H49.4219V17H50.8672V21.4766C51.4505 20.7526 52.2552 20.3906 53.2812 20.3906C54.3073 20.3906 55.112 20.7786 55.6953 21.5547C56.2839 22.3307 56.5781 23.3932 56.5781 24.7422V24.8672ZM55.1328 24.7031C55.1328 23.7188 54.9427 22.9583 54.5625 22.4219C54.1823 21.8854 53.6354 21.6172 52.9219 21.6172C51.9688 21.6172 51.2839 22.0599 50.8672 22.9453V26.6016C51.3099 27.487 52 27.9297 52.9375 27.9297C53.6302 27.9297 54.1693 27.6615 54.5547 27.125C54.9401 26.5885 55.1328 25.7812 55.1328 24.7031ZM63.3281 26.7578C63.3281 26.3672 63.1797 26.0651 62.8828 25.8516C62.5911 25.6328 62.0781 25.4453 61.3438 25.2891C60.6146 25.1328 60.0339 24.9453 59.6016 24.7266C59.1745 24.5078 58.8568 24.2474 58.6484 23.9453C58.4453 23.6432 58.3438 23.2839 58.3438 22.8672C58.3438 22.1745 58.6354 21.5885 59.2188 21.1094C59.8073 20.6302 60.5573 20.3906 61.4688 20.3906C62.4271 20.3906 63.2031 20.638 63.7969 21.1328C64.3958 21.6276 64.6953 22.2604 64.6953 23.0312H63.2422C63.2422 22.6354 63.0729 22.2943 62.7344 22.0078C62.401 21.7214 61.9792 21.5781 61.4688 21.5781C60.9427 21.5781 60.5312 21.6927 60.2344 21.9219C59.9375 22.151 59.7891 22.4505 59.7891 22.8203C59.7891 23.1693 59.9271 23.4323 60.2031 23.6094C60.4792 23.7865 60.9766 23.9557 61.6953 24.1172C62.4193 24.2786 63.0052 24.4714 63.4531 24.6953C63.901 24.9193 64.2318 25.1901 64.4453 25.5078C64.6641 25.8203 64.7734 26.2031 64.7734 26.6562C64.7734 27.4115 64.4714 28.0182 63.8672 28.4766C63.263 28.9297 62.4792 29.1562 61.5156 29.1562C60.8385 29.1562 60.2396 29.0365 59.7188 28.7969C59.1979 28.5573 58.7891 28.224 58.4922 27.7969C58.2005 27.3646 58.0547 26.8984 58.0547 26.3984H59.5C59.526 26.8828 59.7188 27.2682 60.0781 27.5547C60.4427 27.8359 60.9219 27.9766 61.5156 27.9766C62.0625 27.9766 62.5 27.8672 62.8281 27.6484C63.1615 27.4245 63.3281 27.1276 63.3281 26.7578ZM70.0469 27.9766C70.5625 27.9766 71.013 27.8203 71.3984 27.5078C71.7839 27.1953 71.9974 26.8047 72.0391 26.3359H73.4062C73.3802 26.8203 73.2135 27.2812 72.9062 27.7188C72.599 28.1562 72.1875 28.5052 71.6719 28.7656C71.1615 29.026 70.6198 29.1562 70.0469 29.1562C68.8958 29.1562 67.9792 28.7734 67.2969 28.0078C66.6198 27.237 66.2812 26.1849 66.2812 24.8516V24.6094C66.2812 23.7865 66.4323 23.0547 66.7344 22.4141C67.0365 21.7734 67.4688 21.276 68.0312 20.9219C68.599 20.5677 69.2682 20.3906 70.0391 20.3906C70.987 20.3906 71.7734 20.6745 72.3984 21.2422C73.0286 21.8099 73.3646 22.5469 73.4062 23.4531H72.0391C71.9974 22.9062 71.7891 22.4583 71.4141 22.1094C71.0443 21.7552 70.5859 21.5781 70.0391 21.5781C69.3047 21.5781 68.7344 21.8438 68.3281 22.375C67.9271 22.901 67.7266 23.6641 67.7266 24.6641V24.9375C67.7266 25.9115 67.9271 26.6615 68.3281 27.1875C68.7292 27.7135 69.3021 27.9766 70.0469 27.9766ZM79.1172 21.8438C78.8984 21.8073 78.6615 21.7891 78.4062 21.7891C77.4583 21.7891 76.8151 22.1927 76.4766 23V29H75.0312V20.5469H76.4375L76.4609 21.5234C76.9349 20.7682 77.6068 20.3906 78.4766 20.3906C78.7578 20.3906 78.9714 20.4271 79.1172 20.5V21.8438ZM82.0234 29H80.5781V20.5469H82.0234V29ZM80.4609 18.3047C80.4609 18.0703 80.5312 17.8724 80.6719 17.7109C80.8177 17.5495 81.0312 17.4688 81.3125 17.4688C81.5938 17.4688 81.8073 17.5495 81.9531 17.7109C82.099 17.8724 82.1719 18.0703 82.1719 18.3047C82.1719 18.5391 82.099 18.7344 81.9531 18.8906C81.8073 19.0469 81.5938 19.125 81.3125 19.125C81.0312 19.125 80.8177 19.0469 80.6719 18.8906C80.5312 18.7344 80.4609 18.5391 80.4609 18.3047ZM91.5 24.8672C91.5 26.1589 91.2031 27.1979 90.6094 27.9844C90.0156 28.7656 89.2188 29.1562 88.2188 29.1562C87.151 29.1562 86.3255 28.7786 85.7422 28.0234L85.6719 29H84.3438V17H85.7891V21.4766C86.3724 20.7526 87.1771 20.3906 88.2031 20.3906C89.2292 20.3906 90.0339 20.7786 90.6172 21.5547C91.2057 22.3307 91.5 23.3932 91.5 24.7422V24.8672ZM90.0547 24.7031C90.0547 23.7188 89.8646 22.9583 89.4844 22.4219C89.1042 21.8854 88.5573 21.6172 87.8438 21.6172C86.8906 21.6172 86.2057 22.0599 85.7891 22.9453V26.6016C86.2318 27.487 86.9219 27.9297 87.8594 27.9297C88.5521 27.9297 89.0911 27.6615 89.4766 27.125C89.862 26.5885 90.0547 25.7812 90.0547 24.7031ZM96.8359 29.1562C95.6901 29.1562 94.7578 28.7812 94.0391 28.0312C93.3203 27.276 92.9609 26.2682 92.9609 25.0078V24.7422C92.9609 23.9036 93.1198 23.1562 93.4375 22.5C93.7604 21.8385 94.2083 21.3229 94.7812 20.9531C95.3594 20.5781 95.9844 20.3906 96.6562 20.3906C97.7552 20.3906 98.6094 20.7526 99.2188 21.4766C99.8281 22.2005 100.133 23.237 100.133 24.5859V25.1875H94.4062C94.4271 26.0208 94.6693 26.6953 95.1328 27.2109C95.6016 27.7214 96.1953 27.9766 96.9141 27.9766C97.4245 27.9766 97.8568 27.8724 98.2109 27.6641C98.5651 27.4557 98.875 27.1797 99.1406 26.8359L100.023 27.5234C99.3151 28.612 98.2526 29.1562 96.8359 29.1562ZM96.6562 21.5781C96.0729 21.5781 95.5833 21.7917 95.1875 22.2188C94.7917 22.6406 94.5469 23.2344 94.4531 24H98.6875V23.8906C98.6458 23.1562 98.4479 22.5885 98.0938 22.1875C97.7396 21.7812 97.2604 21.5781 96.6562 21.5781Z" fill="white"/>
</svg>
